<?xml version="1.0" encoding="UTF-8"?>
<svg enable-background="new 0 0 62.2 79.2" version="1.0" viewBox="0 0 62.2 79.2" xml:space="preserve" xmlns="http://www.w3.org/2000/svg">
<style type="text/css">
	.st0{fill-rule:evenodd;clip-rule:evenodd;fill:#1B1918;}
	.st1{fill-rule:evenodd;clip-rule:evenodd;fill:#FFFFFF;}
</style>

<g transform="translate(-14.173 -23.644)">
	<path class="st0" d="m18 34.6c-0.9 0.8-1.8 1.7-2.6 2.6-0.4 0.5-0.7 0.9-1.1 1.4-0.1 0.1-0.1 0.2-0.2 0.4-0.2 0.8 0.5 2.4 0.8 3.2 0.8 2.8 0.7 5.4 0.7 8.3 0 2.2 0 4.2-0.1 6.4 0 1.1 0.1 2.6 0.1 3.7 0 3.9-0.2 8.2 0.1 12.1 1 13.8 11 20.5 22.4 26 2.2 1.1 3.6 1.8 5.6 3.3 2.2 1.7 2.4 0.6 4.3-0.8 2.4-1.7 6-3.1 8.7-4.6 5.7-3 10.6-6.6 14.3-12.1 4.9-7.5 3.9-16 3.9-24.5 0-4.5-0.1-9.3 0.1-13.8 0.1-2.5 0.5-3.3 1.2-5.6 0.6-1.9-0.3-2.5-1.6-3.9-4.7-4.9-9.2-8.2-15.6-10.5-4.1-1.5-7.9-2.2-12.3-2.4-7-0.4-15.1 1.7-21.1 5.2-2.8 1.5-5.2 3.4-7.6 5.6z"/>
	<path class="st1" d="m21.6 81.3c-3.5-6.5-2.5-13.7-2.6-20.8v-7.1c0-3.9 0.5-9-0.9-12.6-0.4-1.6 0.6-2.2 1.7-3.3 13.5-13.1 34.6-14.2 49-1.9 0.7 0.6 4 3.5 3.9 4.3-0.1 0.9-0.7 2.4-0.9 3.5-0.4 2.4-0.2 5.5-0.2 8v10.8c0.1 4.2 0.2 10.5-0.8 14.5-2.5 9.4-10.8 14.5-19 18.6-1.9 0.9-3.5 1.8-5.4 2.9-1.7 1-2 0.1-3.5-0.7-2.4-1.4-5-2.5-7.4-3.9-5.7-3.1-10.7-6.5-13.9-12.3zm-3.6-46.7c-0.9 0.8-1.8 1.7-2.6 2.6-0.4 0.5-0.7 0.9-1.1 1.4-0.1 0.1-0.1 0.2-0.2 0.4-0.2 0.8 0.5 2.4 0.8 3.2 0.8 2.8 0.7 5.4 0.7 8.3 0 2.2 0 4.2-0.1 6.4 0 1.1 0.1 2.6 0.1 3.7 0 3.9-0.2 8.2 0.1 12.1 1 13.8 11 20.5 22.4 26 2.2 1.1 3.6 1.8 5.6 3.3 2.2 1.7 2.4 0.6 4.3-0.8 2.4-1.7 6-3.1 8.7-4.6 5.7-3 10.6-6.6 14.3-12.1 4.9-7.5 3.9-16 3.9-24.5 0-4.5-0.1-9.3 0.1-13.8 0.1-2.5 0.5-3.3 1.2-5.6 0.6-1.9-0.3-2.5-1.6-3.9-4.7-4.9-9.2-8.2-15.6-10.5-4.1-1.5-7.9-2.2-12.3-2.4-7-0.4-15.1 1.7-21.1 5.2-2.8 1.5-5.2 3.4-7.6 5.6zm18.7 25.4c-0.2 0.4-0.5 1.4-1 1.6-0.4 0-0.2-0.5-0.2-0.8 0.2-0.8 0.8-2.2 1.2-3.1s0-1.7 0.3-2.8 0.9-2.6 1.3-3.8c0.3-0.9 0.6-1.8 1-2.7 0.3-0.9 0.6-1.8 1-2.7 0.3-0.8 1-3.3 1.6-3.7 0.3-0.1 0.4 0.5 0.5 0.7 0.8 1.5 0.8 0.9 0.1 2.7-0.5 1.3-0.8 2.5-1.4 3.7-0.3 0.8-0.6 1.7-0.9 2.6-0.4 0.9-0.6 1.5-0.9 2.5s-0.5 1.7-1.2 2.5c-0.8 0.8-1 2.2-1.4 3.3zm16.7-5.4c0.6 0.4 0.4 0.2 0.8 0.7 0.6 0.6 0.5-0.7 1.2-0.2 0.6 0.5 0.7 1.9-0.1 1.6-0.3-0.1-0.5-0.3-0.7 0s0.1 1.5 0.1 1.9c0.1 0.9 0.2 0.8 0.5 1.6 0.5 1-0.1 1.8-0.7 0.6-0.4-0.9-0.6-1.5-1.1-2.4-0.3-0.5-0.6-1.1-0.9-1.6s-0.5-1-0.4-1.6c0.1-0.9 0.3-0.6 0-1.5-0.4-1.2-0.5-0.9-1.1-1.8-0.8-1.3-1-2.5-1.6-3.9-0.4-0.9-0.6-1.8-1-2.7-0.2-0.5-0.6-1.4-0.4-1.9 0.1-0.3 0.4-0.6 0.5-1s0.3-0.9 0.7-0.4c0.4 0.4 0.8 2.2 1.1 2.9 0.6 1.6 1.2 3.1 1.7 4.7 0.4 1 0.5 1.5 0.4 2.6 0 0.9 0.4 1.9 1 2.4zm-7.8-11.1c-1.4 0-2.2-0.2-2.7-1.7-0.1-0.4-0.1-1.2-0.3-1.7-0.1-0.5-0.4-1.8-0.1-2.2 1.4-1 1.8 0.6 1.8-2.5 0-0.8 0.1-1.6 1.1-1.4 1.9 0.3-0.2 3.2 1.6 3.6 1 0.2 1.2 0.1 1.2 1.3-0.1 1-0.4 3.4-1 4.1-0.4 0.5-1 0.5-1.6 0.5zm-12 17.7v0.4c0.2 0.6 1 0.7 1.5 0.8 2.7 0.4 5.8 0.5 8.5 0.5 3.3 0 6.9 0 10.2-0.3 0.7-0.1 2.5-0.1 2.8-0.8 0.3-0.5 0.1-2.3 0.1-3 0-1.2 0.1-2.3 0.1-3.5-0.1-3.5 0-7 0-10.5v-2.7c0-2.3-0.6-3.5-2.2-5.2-1.1-1.2-3.2-2.4-4.7-2.9-3.7-1.2-6.2-1.2-9.9 0.1-2.5 0.9-5.4 3.1-6.3 5.7-0.4 1.1-0.3 3.3-0.2 4.5v14.5c0.1 0.7 0.1 1.6 0.1 2.4zm-10.8-17.5c-0.2-1.3-0.6-2.6 0.2-3.6l0.6-0.6c3.4-3.3 8.7-6 13.2-7.2 7.8-2.1 15.9-1.3 23.1 2.4 2.5 1.3 5.6 3.2 7.5 5.2 1.3 1.7 0.3 2.9 0.1 4.8-0.4 3 0 5.9 0 8.9 0 1-0.1 2-1.2 2.1h-1.7c-1.5 0-3.1-0.1-4.6 0-0.6 0-1.4 0.1-1.1 0.9 0.2 1 3.6 0.6 4.4 0.6 1.1 0 4.6 0.2 5.3-0.1 0.9-0.3 0.6-1.6 0.6-2.4-0.1-3-0.1-6.1 0-9.1 0-1.3 0.4-2.3 0.5-3.5 0.1-1.4 0.5-1.9-0.8-3-6.3-5.7-13-8.8-21.6-9.5-5.3-0.4-10.8 0.7-15.7 2.9-2.3 1-3.4 1.6-5.4 3.1-1.3 1-5 3.6-5.2 5.1 0 0.7 0.4 2.8 0.5 3.7 0.2 2.3 0.1 4.7 0.2 7.1 0 1.1-0.5 5.1 0.7 5.6 0.8 0.3 4.8 0 6.2 0.1 0.5 0 2.8 0.1 3.1-0.1 0.3-0.3 0.3-1.2-0.3-1.3s-3.8 0-4.6 0c-0.6 0-2.7 0.2-3.2-0.2-0.6-0.6-0.4-3-0.4-3.9 0-2.8 0.1-5.4-0.4-8zm1.4 30.2c-0.4 0.3-0.3 0.9 0.4 1s2 0 2.8 0c6.3-0.1 12.6 0 18.8 0h9.6 9.5c0.4 0 1.3 0 1.1-0.7-0.2-0.6-1.9-0.4-2.4-0.4h-8.1-8.7-16-5.4c-0.4-0.1-1.1-0.1-1.6 0.1zm3.8-33.4c-1 1-2 2.1-3.1 3.1-0.4 0.4-1.1 1.2-0.6 1.8 0.1 0.2 0.6 0.1 0.7-0.1 0.3-0.3 0.5-0.6 0.8-0.9l1.4-1.4c1.8-1.8 3.7-3.6 5.5-5.5 0.8-0.8 1.4-1.7 2.3-2.5 0.1-0.1 1-0.9 1-0.9 0.1-0.3-0.1-0.3-0.4-0.4-0.6-0.1-1.6 0.7-2 1.1-1.8 2-3.7 3.9-5.6 5.7zm30.9 9.7c0.5 0 1.3-1 1.7-1.4 1.7-1.7 3.3-3.4 5-5 0.6-0.6 1.1-1.2 1.3-2.1 0.1-0.6-0.5-0.6-0.9 0-0.4 0.5-1.4 1.5-1.9 2l-4.6 4.6c-0.4 0.4-1.1 1.3-0.8 1.8l0.2 0.1zm-27.5-9.8c-1.9 1.9-3.7 3.8-5.6 5.7-0.7 0.7-1.6 1.2-1.6 2.2 0 0.3 0.2 0.6 0.5 0.5s0.8-0.8 1.1-1.1c1.3-1.3 2.5-2.6 3.8-3.8 0.5-0.5 1.7-1.6 2.1-2.2 0.2-0.4 0.2-0.4 0.2-0.8 0-0.7-0.4-0.6-0.5-0.5zm27.3 12.9c0.1 0.6 0.7 0.1 0.9-0.2 0.6-0.5 1.2-1.3 1.8-1.8 1.4-1.5 2.9-2.8 4.3-4.3 0.4-0.4 1-1.1 0.6-1.7-0.4-0.7-1.6 1-1.9 1.3-1.2 1.2-2.3 2.3-3.5 3.4-0.4 0.4-1.8 1.7-2 2.1s-0.2 0.8-0.2 1.2zm-27.3-9.5c-0.7 0.3-1 1-1.5 1.5-1.3 1.1-2.5 2.5-3.7 3.7-0.4 0.4-1.6 1.5-1.8 1.9-0.5 1-0.1 1.9 0.7 0.9l1.7-1.7c0.2-0.2 0.2-0.3 0.5-0.5 1.3-1.2 2.5-2.5 3.7-3.7 0.2-0.2 0.4-0.4 0.6-0.7s0.2-0.3 0.2-0.8 0-0.8-0.4-0.6zm-6.7 10.8c1 0 2-1.3 2.6-1.9l3.9-3.9c0.3-0.3 0.6-0.8 0.6-1.3 0-0.1-0.1-0.3-0.2-0.3-0.1-0.1-0.5 0.1-0.6 0.2-0.3 0.2-0.8 0.9-1.2 1.2l-2 2c-0.9 0.9-1.7 1.8-2.6 2.6-0.3 0.2-1.2 0.9-0.7 1.3 0 0.1 0.1 0.1 0.2 0.1zm34.1-8.8c-0.2 0.4-0.2 0.7 0 1.1 0.2 0.1 0.2 0.1 0.4 0.1 0.3-0.2 1.5-1.5 1.9-1.8l2.7-2.7c0.6-0.6 1.1-1.2 1.8-1.8 0.6-0.5 0-1.4-0.8-0.9-0.3 0.2-1 0.9-1.3 1.3-1.3 1.3-2.8 2.7-4.1 4.1-0.2 0.2-0.4 0.3-0.6 0.6zm-29.4-8.2c0.1-0.1 1.3-1.3 0.7-1.4-0.7 0-3.4 2.4-4.1 3-0.3 0.3-1.9 1.9-2.1 2.2-0.4 0.7 0 1.7 0.8 0.9 0.5-0.5 1-1.1 1.5-1.6 1.1-1 2.1-2.1 3.2-3.1zm31.3 17c0.9 0 1.4-0.7 2-1.3 0.8-0.9 1.7-1.7 2.5-2.5 0.5-0.5 1.4-1.4 1-2.1-0.3-0.5-0.9 0.2-1.1 0.5-1.4 1.4-2.7 2.8-4.1 4.2-0.2 0.2-1 0.7-0.8 1.1 0.1 0.1 0.3 0.1 0.5 0.1zm-1.6-10.8c0.3-0.1 1.8-1.7 2.1-2 0.5-0.5 2.6-2.4 2.7-2.9 0.2-0.5-0.5-0.9-1.2-0.4-0.4 0.3-1 1-1.3 1.4-0.7 0.7-2.3 2-2.6 2.9-0.1 0.3-0.2 1 0.3 1zm-31.5 10.2c-0.3 0.7 0.6 0.9 1.3 0.3 0.4-0.3 1.1-1.1 1.6-1.6 0.6-0.6 1.7-1.4 1.1-2.4-0.7 0.1-1.1 0.8-1.5 1.2l-2 2c-0.2 0.3-0.3 0.2-0.5 0.5zm33.4-15.4c0.4-0.3 1.6-1.3 0.7-1.7-0.6-0.3-1.1 0.5-1.5 0.9-0.5 0.5-2 1.7-1.4 2.4 0.4 0.5 1.1-0.5 1.4-0.8l0.8-0.8zm3.3 14.7c-0.3 0.3-1 0.7-0.7 1.2 0.2 0.3 1 0 1.3-0.2 2-1.4 1.7-3.2 0.8-2.4l-1.4 1.4zm-5.2-17.6c-0.2 0.1-1 0.9-1.2 1.1-0.7 0.8 0 1.4 0.5 1.1 0.3-0.2 0.7-0.8 1.2-1.1 0.2-0.2 0.5-0.4 0.3-0.8-0.1-0.2-0.5-0.4-0.8-0.3zm-2.3-1c-1.1 0.4-0.6 1.8 0.3 1.2 0.1-0.1 0.7-0.6 0.6-0.8 0.1-0.3-0.5-0.5-0.9-0.4zm-25.5 19c-0.8 0.3-0.7 1.2-0.1 1 0.3-0.1 0.5-0.2 0.6-0.5 0.1-0.4-0.1-0.7-0.5-0.5zm23.5-19.2c0.6 0.3 0.9-0.7 0.1-0.7-0.5 0-0.6 0.3-0.3 0.6l0.2 0.1zm-24.3 34.6-2.1-5h1.3l1.3 3.6 1.1-3.6h1.2l-1.9 5.3c-0.2 0.6-0.5 1.1-0.7 1.4s-0.5 0.4-0.8 0.4-0.6 0-0.8-0.1v-1h0.4c0.3 0 0.5-0.1 0.6-0.2 0.2-0.2 0.3-0.4 0.4-0.8zm3.4-3.1h1v0.7c0.1-0.3 0.3-0.5 0.6-0.6 0.2-0.2 0.5-0.2 0.7-0.2 0.5 0 0.9 0.2 1.2 0.7 0.3 0.4 0.5 1.1 0.5 1.9 0 0.9-0.2 1.5-0.5 2s-0.7 0.7-1.2 0.7c-0.2 0-0.4-0.1-0.6-0.2s-0.4-0.3-0.6-0.6v2.5h-1.1v-6.9zm1.1 2.4c0 0.6 0.1 1 0.3 1.3s0.4 0.4 0.7 0.4c0.2 0 0.5-0.1 0.6-0.4 0.2-0.2 0.3-0.7 0.3-1.2s-0.1-0.9-0.3-1.2-0.4-0.4-0.6-0.4c-0.3 0-0.5 0.1-0.7 0.4s-0.3 0.6-0.3 1.1zm4.7-0.9-1-0.2c0.1-0.5 0.3-0.9 0.6-1.1s0.7-0.3 1.2-0.3 0.8 0.1 1.1 0.2c0.2 0.1 0.4 0.3 0.5 0.5s0.2 0.6 0.2 1.2v1.5c0 0.4 0 0.8 0.1 1 0 0.2 0.1 0.4 0.2 0.7h-1.1l-0.1-0.5c-0.2 0.2-0.4 0.4-0.6 0.5s-0.4 0.2-0.7 0.2c-0.4 0-0.7-0.1-1-0.4s-0.4-0.6-0.4-1.1c0-0.3 0.1-0.5 0.2-0.7s0.3-0.4 0.4-0.5c0.2-0.1 0.5-0.2 0.9-0.3 0.5-0.1 0.9-0.2 1.1-0.3 0-0.3 0-0.5-0.1-0.5 0-0.1-0.1-0.2-0.2-0.2-0.1-0.1-0.3-0.1-0.4-0.1-0.2 0-0.4 0-0.5 0.1-0.3-0.1-0.4 0.1-0.4 0.3zm1.4 1.1c-0.1 0.1-0.4 0.1-0.7 0.2s-0.6 0.2-0.7 0.3-0.2 0.2-0.2 0.4 0.1 0.4 0.2 0.5 0.3 0.2 0.4 0.2c0.2 0 0.3-0.1 0.5-0.2s0.3-0.2 0.3-0.4c0.1-0.1 0.1-0.4 0.1-0.8v-0.2zm5 2.4v-4h-1.5v2.3c0 0.4 0 0.7-0.1 0.9s-0.1 0.4-0.3 0.6c0 0.2-0.1 0.2-0.2 0.3h-0.5c-0.1 0-0.4 0-0.7-0.1v-1h0.5c0.1 0 0.2 0 0.3-0.1 0-0.1 0.1-0.3 0.1-0.6v-3.3h3.7v5h-1.3zm2.3 0v-6.9h4.3v1.2h-3.1v1.6h1.6c0.6 0 1.1 0.2 1.5 0.6s0.5 0.9 0.5 1.5c0 0.5-0.1 1-0.4 1.4s-0.8 0.6-1.5 0.6h-2.9zm1.1-3v1.8h1.2c0.3 0 0.5 0 0.7-0.1 0.1 0 0.3-0.1 0.4-0.3s0.2-0.3 0.2-0.5c0-0.6-0.4-0.9-1.2-0.9h-1.3zm4-2h1.2l1 3.6 1-3.6h1.1l-1.5 4.8-0.3 0.9c-0.1 0.4-0.2 0.6-0.4 0.8-0.1 0.2-0.3 0.3-0.5 0.4-0.1 0.1-0.3 0.1-0.6 0.1-0.2 0-0.4 0-0.6-0.1l-0.1-1c0.2 0 0.3 0.1 0.5 0.1s0.4-0.1 0.5-0.2 0.2-0.4 0.3-0.7l-1.6-5.1zm5 0h1v0.7c0.1-0.3 0.3-0.5 0.6-0.6 0.2-0.2 0.5-0.2 0.7-0.2 0.5 0 0.9 0.2 1.2 0.7 0.3 0.4 0.5 1.1 0.5 1.9 0 0.9-0.2 1.5-0.5 2s-0.7 0.7-1.2 0.7c-0.2 0-0.4-0.1-0.6-0.2s-0.4-0.3-0.6-0.6v2.5h-1.1v-6.9zm1.1 2.4c0 0.6 0.1 1 0.3 1.3s0.4 0.4 0.7 0.4c0.2 0 0.5-0.1 0.6-0.4 0.2-0.2 0.3-0.7 0.3-1.2s-0.1-0.9-0.3-1.2-0.4-0.4-0.6-0.4c-0.3 0-0.5 0.1-0.7 0.4s-0.3 0.6-0.3 1.1zm-26.2 14.3h-1.1v-6.9h4.6v6.9h-1.1v-5.7h-2.3v5.7zm4.6-5h1v0.7c0.1-0.3 0.3-0.5 0.6-0.6 0.2-0.2 0.5-0.2 0.7-0.2 0.5 0 0.9 0.2 1.2 0.7 0.3 0.4 0.5 1.1 0.5 1.9 0 0.9-0.2 1.5-0.5 2s-0.7 0.7-1.2 0.7c-0.2 0-0.4-0.1-0.6-0.2s-0.4-0.3-0.6-0.6v2.5h-1.1v-6.9zm1.1 2.4c0 0.6 0.1 1 0.3 1.3s0.4 0.4 0.7 0.4c0.2 0 0.5-0.1 0.6-0.4 0.2-0.2 0.3-0.7 0.3-1.2s-0.1-0.9-0.3-1.2-0.4-0.4-0.6-0.4c-0.3 0-0.5 0.1-0.7 0.4-0.2 0.2-0.3 0.6-0.3 1.1zm3.5 0c0-0.5 0.1-0.9 0.3-1.3s0.5-0.7 0.8-0.9 0.7-0.3 1.1-0.3c0.7 0 1.2 0.3 1.6 0.8s0.6 1.1 0.6 1.8c0 0.5-0.1 1-0.3 1.4s-0.5 0.7-0.8 0.9-0.7 0.3-1.1 0.3c-0.6 0-1.1-0.2-1.5-0.7-0.5-0.5-0.7-1.2-0.7-2zm1.2 0.1c0 0.5 0.1 0.9 0.3 1.2s0.4 0.4 0.7 0.4 0.5-0.1 0.7-0.4 0.3-0.6 0.3-1.2c0-0.5-0.1-0.9-0.3-1.1-0.2-0.3-0.4-0.4-0.7-0.4s-0.5 0.1-0.7 0.4c-0.2 0.2-0.3 0.6-0.3 1.1zm6.4 0.9 1.1 0.2c-0.1 0.5-0.4 0.9-0.7 1.1s-0.7 0.4-1.1 0.4c-0.6 0-1.1-0.2-1.4-0.6-0.4-0.5-0.6-1.1-0.6-2 0-0.8 0.2-1.5 0.6-2 0.3-0.4 0.8-0.6 1.3-0.6 0.6 0 1.1 0.2 1.4 0.7 0.4 0.5 0.6 1.2 0.6 2.2v0.2h-2.7c0 0.4 0.1 0.7 0.3 0.9s0.4 0.3 0.6 0.3c0.2-0.1 0.5-0.4 0.6-0.8zm0-1.4c0-0.4-0.1-0.7-0.3-0.9s-0.3-0.3-0.6-0.3c-0.2 0-0.4 0.1-0.6 0.3s-0.2 0.5-0.2 0.9h1.7zm2 3v-5h1.1v2c0.1 0 0.3-0.1 0.3-0.1 0.1-0.1 0.2-0.3 0.3-0.7s0.2-0.7 0.4-0.9c0.1-0.2 0.4-0.3 0.7-0.3h0.4v0.9h-0.1c-0.2 0-0.3 0-0.4 0.1s-0.2 0.2-0.3 0.5-0.2 0.5-0.2 0.6c-0.1 0.1-0.2 0.3-0.4 0.4 0.1 0 0.3 0.1 0.4 0.3 0.1 0.1 0.3 0.4 0.5 0.9l0.6 1.4h-1.2l-0.6-1.5c-0.1-0.3-0.2-0.5-0.3-0.6s-0.2-0.1-0.4-0.1v2.1h-0.8zm3.5-4v-1h3.7v1h-1.3v4h-1.1v-4h-1.3zm-20.7 13.1v-3.1h1.8v0.7h-1.1v2.5l-0.7-0.1zm2.2 0v-0.8h0.7v0.8h-0.7zm2.9 0v-4.3h1.1l0.7 3 0.6-3h1.1v4.3h-0.7v-3.4l-0.7 3.4h-0.7l-0.7-3.4v3.4h-0.7zm4.2 0v-3.1h0.7v2l1-2h0.7v3.1h-0.7v-2l-1.1 2h-0.6zm3.7-2.2-0.6-0.1c0.1-0.3 0.2-0.6 0.4-0.7s0.4-0.2 0.7-0.2 0.5 0 0.7 0.1 0.3 0.2 0.3 0.3c0.1 0.1 0.1 0.4 0.1 0.8v1 0.6c0 0.1 0.1 0.3 0.1 0.4h-0.7v-0.3c-0.1 0.1-0.2 0.2-0.4 0.3-0.1 0.1-0.3 0.1-0.4 0.1-0.3 0-0.5-0.1-0.6-0.3-0.2-0.2-0.2-0.4-0.2-0.7 0-0.2 0-0.3 0.1-0.5l0.3-0.3c0.1-0.1 0.3-0.1 0.6-0.2s0.5-0.1 0.7-0.2v-0.3c0-0.1-0.1-0.1-0.1-0.1-0.1 0-0.2-0.1-0.3-0.1s-0.2 0-0.3 0.1c-0.3 0.1-0.4 0.2-0.4 0.3zm0.9 0.7c-0.1 0-0.2 0.1-0.4 0.1-0.2 0.1-0.4 0.1-0.4 0.2-0.1 0.1-0.1 0.2-0.1 0.3s0 0.2 0.1 0.3 0.2 0.1 0.3 0.1 0.2 0 0.3-0.1 0.2-0.1 0.2-0.2 0.1-0.3 0.1-0.5l-0.1-0.2zm3.7-0.7-0.7 0.1c0-0.3-0.2-0.5-0.5-0.5-0.2 0-0.3 0.1-0.4 0.2s-0.2 0.4-0.2 0.7c0 0.4 0.1 0.6 0.2 0.8s0.2 0.2 0.4 0.2c0.1 0 0.2 0 0.3-0.1s0.1-0.2 0.2-0.5l0.7 0.1c-0.1 0.8-0.5 1.1-1.2 1.1-0.4 0-0.7-0.2-0.9-0.5s-0.3-0.7-0.3-1.2 0.1-0.9 0.3-1.2 0.5-0.4 0.9-0.4c0.3 0 0.6 0.1 0.7 0.2 0.3 0.4 0.4 0.7 0.5 1zm2.9 0-0.7 0.1c0-0.3-0.2-0.5-0.5-0.5-0.2 0-0.3 0.1-0.4 0.2s-0.2 0.4-0.2 0.7c0 0.4 0.1 0.6 0.2 0.8s0.2 0.2 0.4 0.2c0.1 0 0.2 0 0.3-0.1s0.1-0.2 0.2-0.5l0.7 0.1c-0.1 0.8-0.5 1.1-1.2 1.1-0.4 0-0.7-0.2-0.9-0.5s-0.3-0.7-0.3-1.2 0.1-0.9 0.3-1.2 0.5-0.4 0.9-0.4c0.3 0 0.6 0.1 0.7 0.2 0.3 0.4 0.4 0.7 0.5 1zm-10.7-39.4 0.6 1 0.8-0.8 1.1 0.5v1.1l1.1-0.3 0.7 1-0.6 1 1.1 0.3 0.2 1.2-1 0.6 0.8 0.8-0.5 1.1h-1.1l0.3 1.1-1 0.7-1-0.6-0.2 1.1-1.2 0.2-0.6-1-0.8 0.8-1.1-0.5v-1.1l-1.1 0.3-0.7-1 0.6-1-1.2-0.3-0.2-1.2 1-0.6-0.8-0.8 0.5-1.1h1.1l-0.3-1.1 1-0.7 1 0.6 0.3-1.1 1.2-0.2zm0 3.4c0.9 0 1.6 0.7 1.6 1.6s-0.7 1.6-1.6 1.6-1.6-0.7-1.6-1.6 0.7-1.6 1.6-1.6zm6.2 3.4 0.8 0.9 1.1 0.7-0.4 1.3v1.2l-1.3 0.3-1.1 0.7-0.9-0.9-1.1-0.6 0.4-1.3v-1.3l1.2-0.3 1.3-0.7zm-0.4 1.9c0.4 0 0.6 0.3 0.6 0.6 0 0.4-0.3 0.6-0.6 0.6-0.4 0-0.6-0.3-0.6-0.6-0.1-0.3 0.2-0.6 0.6-0.6z"/>
</g>
</svg>
